# xmcd CD database file
#
# Track frame offsets:
#	187
#	22057
#	38245
#	56482
#	68005
#	85287
#	99772
#	118510
#	135082
#	148237
#	159835
#	172797
#	186790
#	204490
#	214335
#	226175
#	240827
#	255450
#
# Disc length: 3658 seconds
#
# Revision: 0
# Processed by: cddbd v1.5.1PL2 Copyright (c) Steve Scherf et al.
# Submitted via: CDex 1.51
#
DISCID=e10e4812
DTITLE=つのだ・ひろ - THE BEST
DYEAR=1974
DGENRE=Blues
TTITLE0=メリー・ジェーン
TTITLE1=アイ・ラブ・ユー
TTITLE2=サムデイ
TTITLE3=ジム・ダンディー
TTITLE4=イン・マーチ
TTITLE5=初恋
TTITLE6=アリス
TTITLE7=人はみんな
TTITLE8=あやまちの国
TTITLE9=恋の日記
TTITLE10=サンシャイン
TTITLE11=ジョージア・オン・マイ・マインド
TTITLE12=サニー
TTITLE13=五つの銅貨
TTITLE14=ロバータ
TTITLE15=青い眼のセシル
TTITLE16=老いらくの恋
TTITLE17=鏡の中のローリー
EXTD=YEAR: 1974
EXTT0=
EXTT1=
EXTT2=
EXTT3=
EXTT4=
EXTT5=
EXTT6=
EXTT7=
EXTT8=
EXTT9=
EXTT10=
EXTT11=
EXTT12=
EXTT13=
EXTT14=
EXTT15=
EXTT16=
EXTT17=
PLAYORDER=
